<?xml version="1.0" encoding="iso-8859-1"?>
<!-- Generator: Adobe Illustrator 19.0.0, SVG Export Plug-In . SVG Version: 6.00 Build 0)  -->
<svg version="1.1" id="Capa_1" xmlns="http://www.w3.org/2000/svg" xmlns:xlink="http://www.w3.org/1999/xlink" x="0px" y="0px"
	 viewBox="0 0 467.668 467.668" style="enable-background:new 0 0 467.668 467.668;" xml:space="preserve">
<path style="fill:#EBF0F3;" d="M93.659,405.854c0,26.224-21.229,46.829-46.829,46.829l0,0C20.605,452.683,0,431.454,0,405.854
	V26.849c0-6.244,4.995-11.863,11.863-11.863h301.58c6.244,0,11.863,4.995,11.863,11.863v379.005l0,0H93.659"/>
<g>
	<path style="fill:#D5D6DB;" d="M94.907,405.854h289.717c0,26.224-21.229,46.829-46.829,46.829H47.454
		C73.678,452.683,94.907,432.078,94.907,405.854z"/>
	<rect x="43.083" y="74.302" style="fill:#D5D6DB;" width="237.268" height="15.61"/>
	<rect x="43.083" y="138.615" style="fill:#D5D6DB;" width="164.839" height="15.61"/>
	<rect x="43.083" y="202.927" style="fill:#D5D6DB;" width="109.893" height="15.61"/>
	<rect x="43.083" y="267.239" style="fill:#D5D6DB;" width="59.317" height="15.61"/>
	<rect x="39.961" y="330.927" style="fill:#D5D6DB;" width="108.644" height="15.61"/>
</g>
<polygon style="fill:#27A2DB;" points="423.961,121.132 219.161,325.932 198.556,305.327 177.951,284.722 157.346,264.117 
	361.522,59.317 "/>
<path style="fill:#FCD462;" d="M219.161,325.932l-43.083,11.863l-31.844,8.741c-4.995,1.249-8.741-3.122-7.493-7.493l8.741-31.844
	l11.863-43.083L219.161,325.932z"/>
<path style="fill:#64798A;" d="M176.078,337.795l-31.844,8.741c-4.995,1.249-8.741-3.122-7.493-7.493l8.741-31.844L176.078,337.795z
	"/>
<path style="fill:#44C4A1;" d="M425.834,118.634L364.02,56.819l36.215-36.215c7.493-7.493,19.356-7.493,26.224,0l35.59,35.59
	c7.493,7.493,7.493,19.356,0,26.224L425.834,118.634z"/>
<rect x="385.44" y="44.428" transform="matrix(-0.7071 0.7071 -0.7071 -0.7071 736.829 -128.9352)" style="fill:#E1E6E9;" width="19.356" height="87.414"/>
<rect x="146.622" y="179.967" transform="matrix(-0.7071 0.7071 -0.7071 -0.7071 629.355 128.5923)" style="fill:#2D93BA;" width="282.846" height="29.346"/>
<g>
</g>
<g>
</g>
<g>
</g>
<g>
</g>
<g>
</g>
<g>
</g>
<g>
</g>
<g>
</g>
<g>
</g>
<g>
</g>
<g>
</g>
<g>
</g>
<g>
</g>
<g>
</g>
<g>
</g>
</svg>
